<svg width="24" height="24" viewBox="0 0 24 24" fill="none" xmlns="http://www.w3.org/2000/svg">
<g clip-path="url(#clip0_2117_12120)">
<path fill-rule="evenodd" clip-rule="evenodd" d="M3 6C3 5.89645 3.00525 5.79412 3.01549 5.69327C3.16912 4.1805 4.4467 3 6 3H18C19.6569 3 21 4.34315 21 6V18C21 19.6569 19.6569 21 18 21H6C4.34315 21 3 19.6569 3 18V6ZM4.50774 5.84663C4.50262 5.89706 4.5 5.94822 4.5 6V14C4.5 14.8284 5.17157 15.5 6 15.5H18C18.8284 15.5 19.5 14.8284 19.5 14V6C19.5 5.17157 18.8284 4.5 18 4.5H6C5.22335 4.5 4.58456 5.09025 4.50774 5.84663ZM19.5 16.5987V18C19.5 18.8284 18.8284 19.5 18 19.5H6C5.17157 19.5 4.5 18.8284 4.5 18V16.5987C4.94126 16.8539 5.45357 17 6 17H18C18.5464 17 19.0587 16.8539 19.5 16.5987Z" fill="#333333"/>
</g>
<defs>
<clipPath id="clip0_2117_12120">
<rect width="24" height="24" fill="white"/>
</clipPath>
</defs>
</svg>
