<svg xmlns="http://www.w3.org/2000/svg" viewBox="0 0 24 24" fill="currentColor" data-slot="icon">
  <g clip-path="url(#a)">
    <path d="M18 9h2a2 2 0 0 1 2 2v8a2 2 0 0 1-2 2H8a2 2 0 0 1-2-2v-4H4a2 2 0 0 1-2-2V5a2 2 0 0 1 2-2h12a2 2 0 0 1 2 2v4Zm-2-4.5H4a.5.5 0 0 0-.5.5v8a.5.5 0 0 0 .5.5h2V11a2 2 0 0 1 2-2h8.5V5a.5.5 0 0 0-.5-.5Zm-8 6a.5.5 0 0 0-.5.5v8a.5.5 0 0 0 .5.5h12a.5.5 0 0 0 .5-.5v-8a.5.5 0 0 0-.5-.5H8Z"/>
  </g>
  <defs>
    <clipPath id="a">
      <rect width="24" height="24"/>
    </clipPath>
  </defs>
</svg>
