<svg viewBox="0 0 24 24" fill="none" xmlns="http://www.w3.org/2000/svg">
  <g clip-path="url(#clip0_2117_12130)">
    <path d="M14.3899 6.48741C14.2328 6.29098 14.3726 6 14.6242 6H17.3758C17.6274 6 17.7672 6.29098 17.6101 6.48741L16.2343 8.20717C16.1142 8.3573 15.8858 8.3573 15.7657 8.20717L14.3899 6.48741Z" fill="#333333"/>
    <path d="M3 5C3 3.89543 3.89543 3 5 3H19C20.1046 3 21 3.89543 21 5V9C21 10.1046 20.1046 11 19 11H5C3.89543 11 3 10.1046 3 9V5ZM5 4.5C4.72386 4.5 4.5 4.72386 4.5 5V9C4.5 9.27614 4.72386 9.5 5 9.5H19C19.2761 9.5 19.5 9.27614 19.5 9V5C19.5 4.72386 19.2761 4.5 19 4.5H5Z" fill="#333333"/>
    <path d="M14.6242 16C14.3726 16 14.2328 16.291 14.3899 16.4874L15.7657 18.2072C15.8858 18.3573 16.1142 18.3573 16.2343 18.2072L17.6101 16.4874C17.7672 16.291 17.6274 16 17.3758 16H14.6242Z" fill="#333333"/>
    <path d="M3 15C3 13.8954 3.89543 13 5 13H19C20.1046 13 21 13.8954 21 15V19C21 20.1046 20.1046 21 19 21H5C3.89543 21 3 20.1046 3 19V15ZM5 14.5C4.72386 14.5 4.5 14.7239 4.5 15V19C4.5 19.2761 4.72386 19.5 5 19.5H19C19.2761 19.5 19.5 19.2761 19.5 19V15C19.5 14.7239 19.2761 14.5 19 14.5H5Z" fill="#333333"/>
  </g>
  <defs>
    <clipPath id="clip0_2117_12130">
      <rect width="24" height="24" fill="white"/>
    </clipPath>
  </defs>
</svg>
