<svg xmlns="http://www.w3.org/2000/svg" viewBox="0 0 24 24" fill="currentColor" data-slot="icon">
  <g clip-path="url(#a)">
    <path d="M14.39 6.487A.3.3 0 0 1 14.624 6h2.752a.3.3 0 0 1 .234.487l-1.376 1.72a.3.3 0 0 1-.468 0l-1.376-1.72Z"/>
    <path d="M3 5a2 2 0 0 1 2-2h14a2 2 0 0 1 2 2v4a2 2 0 0 1-2 2H5a2 2 0 0 1-2-2V5Zm2-.5a.5.5 0 0 0-.5.5v4a.5.5 0 0 0 .5.5h14a.5.5 0 0 0 .5-.5V5a.5.5 0 0 0-.5-.5H5Z"/>
    <path d="M14.624 16a.3.3 0 0 0-.234.487l1.376 1.72a.3.3 0 0 0 .468 0l1.376-1.72a.3.3 0 0 0-.234-.487h-2.752Z"/>
    <path d="M3 15a2 2 0 0 1 2-2h14a2 2 0 0 1 2 2v4a2 2 0 0 1-2 2H5a2 2 0 0 1-2-2v-4Zm2-.5a.5.5 0 0 0-.5.5v4a.5.5 0 0 0 .5.5h14a.5.5 0 0 0 .5-.5v-4a.5.5 0 0 0-.5-.5H5Z"/>
  </g>
  <defs>
    <clipPath id="a">
      <rect width="24" height="24"/>
    </clipPath>
  </defs>
</svg>
