<svg xmlns="http://www.w3.org/2000/svg" width="24" height="24" fill="none">
  <g clip-path="url(#a)">
    <path fill="#333" fill-rule="evenodd" d="M5 21.573h14a2 2 0 0 0 2-2v-6.73a2 2 0 0 0-1.148-1.81L14 8.279V4.43a2 2 0 0 0-2.684-1.88l-7 2.545A2 2 0 0 0 3 6.974v12.6a2 2 0 0 0 2 2ZM11.83 3.96l-7 2.545a.5.5 0 0 0-.33.47v12.6a.5.5 0 0 0 .5.5h2.75v-4.5a.75.75 0 0 1 1.5 0v4.5h3.25V4.428a.5.5 0 0 0-.67-.47ZM14 20.073V9.937l5.213 2.453a.5.5 0 0 1 .287.452v6.731a.5.5 0 0 1-.5.5h-5Z" clip-rule="evenodd"/>
  </g>
  <defs>
    <clipPath id="a">
      <path fill="#fff" d="M0 0h24v24H0z"/>
    </clipPath>
  </defs>
</svg>
