<svg xmlns="http://www.w3.org/2000/svg" width="24" height="24" fill="none">
  <g fill="#333" clip-path="url(#a)">
    <path d="m15.729 13.089 1.787 1.27.708.502c-.29-.29-.52-.434-.708-.502l-1.787-1.27.038-.013.036-.013c.122-.043.255-.089.39-.13.27-.084.585-.161.93-.17.749-.02 1.46.282 2.189 1.01.285.286.557.544.813.788l.012.01c.256.245.504.48.724.706.425.436.836.92 1.026 1.495.21.631.122 1.262-.21 1.91-.314.616-.864 1.28-1.633 2.048a.761.761 0 0 1-.047.043l-.005.005a3.811 3.811 0 0 0-.037.038l-.006.007c-.04.04-.096.097-.163.161a3.699 3.699 0 0 1-.606.47c-.536.331-1.29.599-2.31.537-1.992-.12-4.872-1.487-9.121-5.735-4.25-4.25-5.618-7.129-5.74-9.122-.062-1.019.205-1.774.535-2.31.162-.263.333-.462.47-.607.065-.067.122-.123.162-.163l.007-.006.038-.037.005-.005a.766.766 0 0 1 .043-.047c.77-.771 1.435-1.321 2.05-1.636.65-.332 1.28-.42 1.912-.21.575.192 1.057.603 1.493 1.029.224.219.458.465.7.72l.004.005c.247.26.509.535.798.824.729.728 1.031 1.44 1.012 2.188-.009.346-.086.66-.169.93-.041.136-.088.269-.13.39l-.013.037c-.039.112-.075.215-.109.32-.105.325-.172.619-.158.933L9.239 8.48a6.04 6.04 0 0 1 .114-.397c.04-.123.082-.244.12-.353l.013-.037c.043-.123.08-.231.113-.336.064-.21.098-.372.101-.517.006-.232-.057-.556-.562-1.061-.303-.304-.576-.59-.82-.848l-.005-.005a26.91 26.91 0 0 0-.665-.684c-.415-.407-.685-.596-.902-.668-.16-.054-.362-.067-.726.119-.393.2-.914.606-1.644 1.334L9.238 8.48l1.42 1.009c.006.12.023.242.055.37.118.481.464 1.144 1.376 2.056.912.912 1.575 1.257 2.056 1.375.464.114.854.04 1.303-.105.092-.03.183-.062.28-.096ZM4.264 5.141l-.007.007-.003.004a4.53 4.53 0 0 0-.125.125 2.156 2.156 0 0 0-.276.355c-.176.284-.351.727-.31 1.409.087 1.41 1.11 3.945 5.293 8.127 4.181 4.18 6.717 5.202 8.126 5.288.682.04 1.124-.135 1.408-.31.147-.091.263-.19.355-.277a4.59 4.59 0 0 0 .125-.124l.004-.004.007-.008c.023-.024.066-.068.114-.11.726-.728 1.13-1.249 1.331-1.641.186-.363.173-.565.12-.727-.073-.218-.262-.488-.668-.904-.195-.2-.421-.416-.683-.665l-.015-.014c-.254-.242-.537-.511-.837-.81l-.708-.503a.918.918 0 0 0-.352-.059 1.942 1.942 0 0 0-.517.102c-.105.033-.213.07-.336.113l-.037.013c-.109.038-.23.08-.352.12-.564.183-1.276.349-2.143.136-.851-.208-1.752-.755-2.778-1.78-1.026-1.027-1.573-1.927-1.782-2.778a3.538 3.538 0 0 1 .02-1.746L4.375 5.027c-.042.048-.087.09-.11.114Z"/>
    <path d="M14.579 3.101a.77.77 0 0 1 .903-.605l5.348 1.057a.77.77 0 0 1 .58 1.003l-1.759 5.16a.77.77 0 1 1-1.456-.496l1.098-3.222-5.333 3.079a.77.77 0 1 1-.77-1.333l5.333-3.079-3.339-.66a.77.77 0 0 1-.605-.904Z"/>
  </g>
  <defs>
    <clipPath id="a">
      <path fill="#fff" d="M0 0h24v24H0z"/>
    </clipPath>
  </defs>
</svg>
