<svg xmlns="http://www.w3.org/2000/svg" width="24" height="24" fill="none">
  <g fill="#333" clip-path="url(#a)">
    <path d="M7.5 12.25a.75.75 0 0 0 0 1.5h1a.75.75 0 0 0 0-1.5h-1ZM6.75 16a.75.75 0 0 1 .75-.75h1a.75.75 0 0 1 0 1.5h-1a.75.75 0 0 1-.75-.75ZM11.5 12.25a.75.75 0 0 0 0 1.5h1a.75.75 0 0 0 0-1.5h-1ZM10.75 16a.75.75 0 0 1 .75-.75h1a.75.75 0 0 1 0 1.5h-1a.75.75 0 0 1-.75-.75ZM15.5 12.25a.75.75 0 0 0 0 1.5h1a.75.75 0 0 0 0-1.5h-1Z"/>
    <path d="M8.5 2a.75.75 0 0 1 .75.75V4h5.5V2.75a.75.75 0 0 1 1.5 0V4H18a3 3 0 0 1 3 3v11a3 3 0 0 1-3 3H6a3 3 0 0 1-3-3V7a3 3 0 0 1 3-3h1.75V2.75A.75.75 0 0 1 8.5 2Zm6.25 3.5h-5.5v1.25a.75.75 0 0 1-1.5 0V5.5H6A1.5 1.5 0 0 0 4.5 7v1.25h15V7A1.5 1.5 0 0 0 18 5.5h-1.75v1.25a.75.75 0 0 1-1.5 0V5.5ZM4.5 9.75V18A1.5 1.5 0 0 0 6 19.5h12a1.5 1.5 0 0 0 1.5-1.5V9.75h-15Z"/>
  </g>
  <defs>
    <clipPath id="a">
      <path fill="#fff" d="M0 0h24v24H0z"/>
    </clipPath>
  </defs>
</svg>
