<svg xmlns="http://www.w3.org/2000/svg" viewBox="0 0 24 24" fill="currentColor" data-slot="icon">
  <g clip-path="url(#a)">
    <path d="M10 3a2 2 0 0 0-2 2v4a2 2 0 0 0 2 2h1.25v1.25H7A2.75 2.75 0 0 0 4.25 15H4a2 2 0 0 0-2 2v2a2 2 0 0 0 2 2h2a2 2 0 0 0 2-2v-2a2 2 0 0 0-2-2h-.25c0-.69.56-1.25 1.25-1.25h4.25V15H11a2 2 0 0 0-2 2v2a2 2 0 0 0 2 2h2a2 2 0 0 0 2-2v-2a2 2 0 0 0-2-2h-.25v-1.25H17c.69 0 1.25.56 1.25 1.25H18a2 2 0 0 0-2 2v2a2 2 0 0 0 2 2h2a2 2 0 0 0 2-2v-2a2 2 0 0 0-2-2h-.25A2.75 2.75 0 0 0 17 12.25h-4.25V11H14a2 2 0 0 0 2-2V5a2 2 0 0 0-2-2h-4Zm4 1.5a.5.5 0 0 1 .5.5v4a.5.5 0 0 1-.5.5h-4a.5.5 0 0 1-.5-.5V5a.5.5 0 0 1 .5-.5h4Zm-10 12h2a.5.5 0 0 1 .5.5v2a.5.5 0 0 1-.5.5H4a.5.5 0 0 1-.5-.5v-2a.5.5 0 0 1 .5-.5Zm7 0h2a.5.5 0 0 1 .5.5v2a.5.5 0 0 1-.5.5h-2a.5.5 0 0 1-.5-.5v-2a.5.5 0 0 1 .5-.5Zm7 0h2a.5.5 0 0 1 .5.5v2a.5.5 0 0 1-.5.5h-2a.5.5 0 0 1-.5-.5v-2a.5.5 0 0 1 .5-.5Z"/>
  </g>
  <defs>
    <clipPath id="a">
      <rect width="24" height="24"/>
    </clipPath>
  </defs>
</svg>
