<svg viewBox="0 0 24 24" fill="none" xmlns="http://www.w3.org/2000/svg">
  <g clip-path="url(#clip0_2627_42221)">
    <path fill-rule="evenodd" clip-rule="evenodd" d="M22 12C22 17.5228 17.5228 22 12 22C6.47715 22 2 17.5228 2 12C2 6.47715 6.47715 2 12 2C17.5228 2 22 6.47715 22 12ZM17.4568 18.5174C15.9803 19.7549 14.0772 20.5 12 20.5C7.30558 20.5 3.5 16.6944 3.5 12C3.5 9.92283 4.24508 8.01968 5.48255 6.54323L17.4568 18.5174ZM18.5174 17.4568L6.54321 5.48257C8.01966 4.24508 9.92282 3.5 12 3.5C16.6944 3.5 20.5 7.30558 20.5 12C20.5 14.0772 19.7549 15.9803 18.5174 17.4568Z" fill="#333333"/>
  </g>
  <defs>
    <clipPath id="clip0_2627_42221">
      <rect width="24" height="24" fill="white"/>
    </clipPath>
  </defs>
</svg>
