<svg xmlns="http://www.w3.org/2000/svg" width="24" height="24" fill="none">
  <g fill="#333" clip-path="url(#a)">
    <path d="M2 6.75A2.75 2.75 0 0 1 4.75 4h1a.75.75 0 0 1 0 1.5h-1c-.69 0-1.25.56-1.25 1.25v10.5c0 .69.56 1.25 1.25 1.25h1a.75.75 0 0 1 0 1.5h-1A2.75 2.75 0 0 1 2 17.25V6.75ZM22 17.25A2.75 2.75 0 0 1 19.25 20h-1a.75.75 0 0 1 0-1.5h1c.69 0 1.25-.56 1.25-1.25V6.75c0-.69-.56-1.25-1.25-1.25h-1a.75.75 0 0 1 0-1.5h1A2.75 2.75 0 0 1 22 6.75v10.5Z"/>
    <path d="M6 11.25a.75.75 0 0 0 0 1.5h2a.75.75 0 0 0 0-1.5H6ZM10.25 12a.75.75 0 0 1 .75-.75h2a.75.75 0 0 1 0 1.5h-2a.75.75 0 0 1-.75-.75ZM16 11.25a.75.75 0 0 0 0 1.5h2a.75.75 0 0 0 0-1.5h-2Z"/>
  </g>
  <defs>
    <clipPath id="a">
      <path fill="#fff" d="M0 0h24v24H0z"/>
    </clipPath>
  </defs>
</svg>
