<svg viewBox="0 0 24 24" fill="none" xmlns="http://www.w3.org/2000/svg">
  <g clip-path="url(#clip0_2117_12170)">
    <path d="M4 4H20C21.1 4 22 4.9 22 6V18C22 19.1 21.1 20 20 20H4C2.9 20 2 19.1 2 18V6C2 4.9 2.9 4 4 4ZM19.2653 5.5H4.73467L11.2407 10.4752C11.6889 10.8179 12.3111 10.8179 12.7593 10.4752L19.2653 5.5ZM3.5 6.44416V18C3.5 18.2716 3.72843 18.5 4 18.5H20C20.2716 18.5 20.5 18.2716 20.5 18V6.44416L13.6705 11.6667C12.6845 12.4207 11.3155 12.4207 10.3295 11.6667L3.5 6.44416Z" fill="#333333"/>
  </g>
  <defs>
    <clipPath id="clip0_2117_12170">
      <rect width="24" height="24" fill="white"/>
    </clipPath>
  </defs>
</svg>
