<svg xmlns="http://www.w3.org/2000/svg" viewBox="0 0 24 24" fill="currentColor" data-slot="icon">
  <g clip-path="url(#a)">
    <path d="M3 6a3 3 0 0 1 3-3h12a3 3 0 0 1 3 3v12a3 3 0 0 1-3 3H6a3 3 0 0 1-3-3V6Zm3-1.5A1.5 1.5 0 0 0 4.5 6v2.25h3.75V4.5H6Zm3.75 3.75h9.75V6A1.5 1.5 0 0 0 18 4.5H9.75v3.75ZM4.5 9.75v4.5h3.75v-4.5H4.5Zm0 6V18A1.5 1.5 0 0 0 6 19.5h2.25v-3.75H4.5Zm5.25 0v3.75H18a1.5 1.5 0 0 0 1.5-1.5v-2.25H9.75Zm9.75-1.5v-4.5H9.75v4.5h9.75Z"/>
  </g>
  <defs>
    <clipPath id="a">
      <rect width="24" height="24"/>
    </clipPath>
  </defs>
</svg>
