<svg viewBox="0 0 24 24" xmlns="http://www.w3.org/2000/svg" fill="currentColor" data-slot="icon">
  <g clip-path="url(#clip0_2117_12136)">
    <path d="M7 7.5C7.55228 7.5 8 7.05228 8 6.5C8 5.94772 7.55228 5.5 7 5.5C6.44772 5.5 6 5.94772 6 6.5C6 7.05228 6.44772 7.5 7 7.5Z"/>
    <path d="M8 12C8 12.5523 7.55228 13 7 13C6.44772 13 6 12.5523 6 12C6 11.4477 6.44772 11 7 11C7.55228 11 8 11.4477 8 12Z"/>
    <path d="M7 18.5C7.55228 18.5 8 18.0523 8 17.5C8 16.9477 7.55228 16.5 7 16.5C6.44772 16.5 6 16.9477 6 17.5C6 18.0523 6.44772 18.5 7 18.5Z"/>
    <path d="M6 3C4.34315 3 3 4.34315 3 6V18C3 19.6569 4.34315 21 6 21H18C19.6569 21 21 19.6569 21 18V6C21 4.34315 19.6569 3 18 3H6ZM11.25 4.5V8.25H4.5V6C4.5 5.17157 5.17157 4.5 6 4.5H11.25ZM12.75 4.5H18C18.8284 4.5 19.5 5.17157 19.5 6V8.25H12.75V4.5ZM11.25 9.75V14.25H4.5V9.75H11.25ZM4.5 18V15.75H11.25V19.5H6C5.17157 19.5 4.5 18.8284 4.5 18ZM12.75 19.5V15.75H19.5V18C19.5 18.8284 18.8284 19.5 18 19.5H12.75ZM19.5 14.25H12.75V9.75H19.5V14.25Z"/>
  </g>
  <defs>
    <clipPath id="clip0_2117_12136">
      <rect width="24" height="24"/>
    </clipPath>
  </defs>
</svg>
