<svg xmlns="http://www.w3.org/2000/svg" viewBox="0 0 24 24" fill="currentColor" data-slot="icon">
  <g fill-rule="evenodd" clip-path="url(#a)" clip-rule="evenodd">
    <path d="M12 2.25a4.75 4.75 0 1 0 0 9.5 4.75 4.75 0 0 0 0-9.5ZM8.75 7a3.25 3.25 0 1 1 6.5 0 3.25 3.25 0 0 1-6.5 0Z"/>
    <path d="M7.75 13.75A4.75 4.75 0 0 0 3 18.5V20c0 .966.784 1.75 1.75 1.75h14.5A1.75 1.75 0 0 0 21 20v-1.5a4.75 4.75 0 0 0-4.75-4.75h-8.5Zm-2.298 2.452a3.25 3.25 0 0 1 2.298-.952h8.5a3.25 3.25 0 0 1 3.25 3.25V20a.25.25 0 0 1-.25.25H4.75A.25.25 0 0 1 4.5 20v-1.5c0-.862.342-1.689.952-2.298Z"/>
  </g>
  <defs>
    <clipPath id="a">
      <rect width="24" height="24"/>
    </clipPath>
  </defs>
</svg>
