<svg viewBox="0 0 24 24" xmlns="http://www.w3.org/2000/svg" fill="currentColor" data-slot="icon">
  <g clip-path="url(#clip0_2117_12156)">
    <path d="M12 9.75C12.4142 9.75 12.75 10.0858 12.75 10.5V16C12.75 16.4142 12.4142 16.75 12 16.75C11.5858 16.75 11.25 16.4142 11.25 16V10.5C11.25 10.0858 11.5858 9.75 12 9.75Z"/>
    <path d="M12 7.25C11.5858 7.25 11.25 7.58579 11.25 8C11.25 8.41421 11.5858 8.75 12 8.75H12.01C12.4242 8.75 12.76 8.41421 12.76 8C12.76 7.58579 12.4242 7.25 12.01 7.25H12Z"/>
    <path d="M22 12C22 17.5228 17.5228 22 12 22C6.47715 22 2 17.5228 2 12C2 6.47715 6.47715 2 12 2C17.5228 2 22 6.47715 22 12ZM12 20.5C16.6944 20.5 20.5 16.6944 20.5 12C20.5 7.30558 16.6944 3.5 12 3.5C7.30558 3.5 3.5 7.30558 3.5 12C3.5 16.6944 7.30558 20.5 12 20.5Z"/>
  </g>
  <defs>
    <clipPath id="clip0_2117_12156">
      <rect width="24" height="24"/>
    </clipPath>
  </defs>
</svg>
