<svg xmlns="http://www.w3.org/2000/svg" viewBox="0 0 24 24" fill="currentColor" data-slot="icon">
  <g clip-path="url(#a)">
    <path d="M12 9.75a.75.75 0 0 1 .75.75v3a.75.75 0 0 1-1.5 0v-3a.75.75 0 0 1 .75-.75Z"/>
    <path d="M6 7V4.75C6 3.784 6.784 3 7.75 3h8.5c.966 0 1.75.784 1.75 1.75V7h2a2 2 0 0 1 2 2v11a2 2 0 0 1-2 2H4a2 2 0 0 1-2-2V9a2 2 0 0 1 2-2h2Zm1.5-2.25V7h9V4.75a.25.25 0 0 0-.25-.25h-8.5a.25.25 0 0 0-.25.25ZM20 8.5H4a.5.5 0 0 0-.5.5v2h5.75a.75.75 0 0 1 0 1.5H3.5V20a.5.5 0 0 0 .5.5h16a.5.5 0 0 0 .5-.5v-7.5h-5.75a.75.75 0 0 1 0-1.5h5.75V9a.5.5 0 0 0-.5-.5Z"/>
  </g>
  <defs>
    <clipPath id="a">
      <rect width="24" height="24"/>
    </clipPath>
  </defs>
</svg>
