<svg xmlns="http://www.w3.org/2000/svg" width="24" height="24" fill="none">
  <g fill="#333" clip-path="url(#a)">
    <path d="M3.006 2.75H3a.75.75 0 0 0-.75.75v17c0 .414.336.75.75.75h4a.75.75 0 0 0 0-1.5H3.75V4.25H7a.75.75 0 0 0 0-1.5H3.006ZM21.75 3.5a.75.75 0 0 0-.75-.75h-4a.75.75 0 0 0 0 1.5h3.25v15.5H17a.75.75 0 0 0 0 1.5h4a.75.75 0 0 0 .75-.745V3.588l-.001-.044.001-.044Z"/>
    <path d="M5.84 12.644 9.337 6.15a.748.748 0 0 1 .941-.347.747.747 0 0 1 .384.344l3.498 6.497a.75.75 0 1 1-1.32.711L10 8.082l-2.84 5.274a.75.75 0 0 1-1.32-.712ZM10 17.5a1 1 0 1 0 0-2 1 1 0 0 0 0 2ZM14.5 16.5a1 1 0 1 1-2 0 1 1 0 0 1 2 0ZM17 17.5a1 1 0 1 0 0-2 1 1 0 0 0 0 2Z"/>
  </g>
  <defs>
    <clipPath id="a">
      <path fill="#fff" d="M0 0h24v24H0z"/>
    </clipPath>
  </defs>
</svg>
