<svg xmlns="http://www.w3.org/2000/svg" viewBox="0 0 24 24" fill="currentColor" data-slot="icon">
  <g clip-path="url(#a)">
    <path fill-rule="evenodd" d="M14.5 8.25c0 .645-.244 1.232-.644 1.675a4.25 4.25 0 0 1 2.394 3.825.75.75 0 0 1-1.5 0 2.75 2.75 0 1 0-5.5 0 .75.75 0 0 1-1.5 0 4.25 4.25 0 0 1 2.394-3.825A2.5 2.5 0 1 1 14.5 8.25Zm-1.5 0a1 1 0 1 1-2 0 1 1 0 0 1 2 0Z" clip-rule="evenodd"/>
    <path d="M8.5 16a.75.75 0 0 0 0 1.5H11a.75.75 0 0 0 0-1.5H8.5Z"/>
    <path fill-rule="evenodd" d="M7 2a3 3 0 0 0-3 3v14a3 3 0 0 0 3 3h6.757a3 3 0 0 0 2.122-.879l3.242-3.242A3 3 0 0 0 20 15.757V5a3 3 0 0 0-3-3H7Zm10 1.5H7A1.5 1.5 0 0 0 5.5 5v14A1.5 1.5 0 0 0 7 20.5h6.25V19A3.75 3.75 0 0 1 17 15.25h1.5V5A1.5 1.5 0 0 0 17 3.5Zm-2.182 16.56a1.576 1.576 0 0 1-.068.065V19A2.25 2.25 0 0 1 17 16.75h1.125l-.064.068-3.243 3.243Z" clip-rule="evenodd"/>
  </g>
  <defs>
    <clipPath id="a">
      <rect width="24" height="24"/>
    </clipPath>
  </defs>
</svg>
