<svg viewBox="0 0 24 24" fill="none" xmlns="http://www.w3.org/2000/svg">
  <g clip-path="url(#clip0_2117_12128)">
    <path d="M9.04031 10C8.62106 10 8.38797 10.485 8.64988 10.8123L11.6096 14.512C11.8097 14.7622 12.1903 14.7622 12.3904 14.512L15.3501 10.8123C15.612 10.485 15.3789 10 14.9597 10H9.04031Z" fill="#333333"/>
    <path d="M3 6C3 4.34315 4.34315 3 6 3H18C19.6569 3 21 4.34315 21 6V18C21 19.6569 19.6569 21 18 21H6C4.34315 21 3 19.6569 3 18V6ZM6 4.5C5.17157 4.5 4.5 5.17157 4.5 6V18C4.5 18.8284 5.17157 19.5 6 19.5H18C18.8284 19.5 19.5 18.8284 19.5 18V6C19.5 5.17157 18.8284 4.5 18 4.5H6Z" fill="#333333"/>
  </g>
  <defs>
    <clipPath id="clip0_2117_12128">
      <rect width="24" height="24" fill="white"/>
    </clipPath>
  </defs>
</svg>
