<svg xmlns="http://www.w3.org/2000/svg" width="24" height="24" fill="none">
  <g clip-path="url(#a)">
    <path fill="#333" d="M6.604 3C5.1 3 4.297 4.77 5.287 5.902l4.972 5.933a.25.25 0 0 1 0 .33l-4.972 5.933C4.297 19.229 5.1 21 6.604 21H17.4a1.75 1.75 0 0 0 1.75-1.75v-2a.75.75 0 0 0-1.5 0v2a.25.25 0 0 1-.25.25H6.604a.25.25 0 0 1-.189-.415l4.973-5.933a1.75 1.75 0 0 0 0-2.304L6.415 4.915a.25.25 0 0 1 .189-.415H17.4a.25.25 0 0 1 .25.25v2a.75.75 0 1 0 1.5 0v-2A1.75 1.75 0 0 0 17.4 3H6.604Z"/>
  </g>
  <defs>
    <clipPath id="a">
      <path fill="#fff" d="M0 0h24v24H0z"/>
    </clipPath>
  </defs>
</svg>
