<svg xmlns="http://www.w3.org/2000/svg" width="24" height="24" fill="none">
  <g fill="#333" clip-path="url(#a)">
    <path d="M6.567 3.26a.76.76 0 0 0-1.522 0v16.335L3.314 17.77a.762.762 0 0 0-1.076-.029.76.76 0 0 0-.03 1.075l2.17 2.286c.788.831 2.19.274 2.19-.871V3.26ZM9.567 6.554a.76.76 0 1 0 0 1.52h11.672a.76.76 0 1 0 0-1.52H9.567ZM9.567 11.621a.76.76 0 1 0 0 1.52h8.373a.76.76 0 1 0 0-1.52H9.567ZM8.806 17.448c0-.42.34-.76.761-.76h6.343a.76.76 0 1 1 0 1.52H9.567a.76.76 0 0 1-.761-.76Z"/>
  </g>
  <defs>
    <clipPath id="a">
      <path fill="#fff" d="M0 0h24v24H0z"/>
    </clipPath>
  </defs>
</svg>
