<svg viewBox="0 0 24 24" fill="none" xmlns="http://www.w3.org/2000/svg">
  <g clip-path="url(#clip0_2117_12138)">
    <path d="M8 6.75C7.58579 6.75 7.25 7.08579 7.25 7.5C7.25 7.91421 7.58579 8.25 8 8.25H11.25V15.75H8C7.58579 15.75 7.25 16.0858 7.25 16.5C7.25 16.9142 7.58579 17.25 8 17.25H16C16.4142 17.25 16.75 16.9142 16.75 16.5C16.75 16.0858 16.4142 15.75 16 15.75H12.75V8.25H16C16.4142 8.25 16.75 7.91421 16.75 7.5C16.75 7.08579 16.4142 6.75 16 6.75H8Z" fill="#333333"/>
    <path fill-rule="evenodd" clip-rule="evenodd" d="M3 6C3 4.34315 4.34315 3 6 3H18C19.6569 3 21 4.34315 21 6V18C21 19.6569 19.6569 21 18 21H6C4.34315 21 3 19.6569 3 18V6ZM6 4.5H18C18.8284 4.5 19.5 5.17157 19.5 6V18C19.5 18.8284 18.8284 19.5 18 19.5H6C5.17157 19.5 4.5 18.8284 4.5 18V6C4.5 5.17157 5.17157 4.5 6 4.5Z" fill="#333333"/>
  </g>
  <defs>
    <clipPath id="clip0_2117_12138">
      <rect width="24" height="24" fill="white"/>
    </clipPath>
  </defs>
</svg>
