<svg xmlns="http://www.w3.org/2000/svg" viewBox="0 0 24 24" fill="currentColor" data-slot="icon">
  <g clip-path="url(#a)">
    <path d="M7.75 11a.75.75 0 0 1 .75-.75h3a.75.75 0 0 1 0 1.5h-3a.75.75 0 0 1-.75-.75Z"/>
    <path d="M7.75 15a.75.75 0 0 1 .75-.75h7a.75.75 0 0 1 0 1.5h-7a.75.75 0 0 1-.75-.75Z"/>
    <path d="M21.5 12a9.5 9.5 0 0 1-9.5 9.5H5.5a3 3 0 0 1-3-3V12a9.5 9.5 0 1 1 19 0ZM20 12a8 8 0 1 0-16 0v6.5A1.5 1.5 0 0 0 5.5 20H12a8 8 0 0 0 8-8Z"/>
  </g>
  <defs>
    <clipPath id="a">
      <rect width="24" height="24"/>
    </clipPath>
  </defs>
</svg>
