<svg viewBox="0 0 24 24" fill="none" xmlns="http://www.w3.org/2000/svg">
  <g clip-path="url(#clip0_2117_12160)">
    <path d="M12.75 6C12.75 5.58579 12.4142 5.25 12 5.25C11.5858 5.25 11.25 5.58579 11.25 6V12C11.25 12.1481 11.2938 12.2928 11.376 12.416L13.376 15.416C13.6057 15.7607 14.0714 15.8538 14.416 15.624C14.7607 15.3943 14.8538 14.9286 14.624 14.584L12.75 11.7729V6Z" fill="#333333"/>
    <path d="M22 12C22 17.5228 17.5228 22 12 22C6.47715 22 2 17.5228 2 12C2 6.47715 6.47715 2 12 2C17.5228 2 22 6.47715 22 12ZM20.5 12C20.5 7.30558 16.6944 3.5 12 3.5C7.30558 3.5 3.5 7.30558 3.5 12C3.5 16.6944 7.30558 20.5 12 20.5C16.6944 20.5 20.5 16.6944 20.5 12Z" fill="#333333"/>
  </g>
  <defs>
    <clipPath id="clip0_2117_12160">
      <rect width="24" height="24" fill="white"/>
    </clipPath>
  </defs>
</svg>
