<svg xmlns="http://www.w3.org/2000/svg" width="24" height="24" fill="none">
  <g fill="#333" clip-path="url(#a)">
    <path d="M17.53 6.47a.75.75 0 0 1 0 1.06l-10 10a.75.75 0 0 1-1.06-1.06l10-10a.75.75 0 0 1 1.06 0ZM14.53 13.47a.75.75 0 1 0-1.06 1.06l.97.97-.97.97a.75.75 0 1 0 1.06 1.06l.97-.97.97.97a.75.75 0 1 0 1.06-1.06l-.97-.97.97-.97a.75.75 0 1 0-1.06-1.06l-.97.97-.97-.97ZM12.53 7.53a.75.75 0 0 0-1.06-1.06L8.5 9.44 7.03 7.97a.75.75 0 0 0-1.06 1.06l2 2a.75.75 0 0 0 1.06 0l3.5-3.5Z"/>
    <path d="M5 3a2 2 0 0 0-2 2v14a2 2 0 0 0 2 2h14a2 2 0 0 0 2-2V5a2 2 0 0 0-2-2H5Zm14 1.5a.5.5 0 0 1 .5.5v14a.5.5 0 0 1-.5.5H5a.5.5 0 0 1-.5-.5V5a.5.5 0 0 1 .5-.5h14Z"/>
  </g>
  <defs>
    <clipPath id="a">
      <path fill="#fff" d="M0 0h24v24H0z"/>
    </clipPath>
  </defs>
</svg>
